name C:\Users\Graham\Documents\MATLAB\MOtoNMS_v2_2\MyData\ElaboratedData\S1\17-05-18\dynamicElaborations\rightStSt\\ET2\ET2.mot
datacolumns 19
datarows 15
range 1.36667 1.39
endheader

time	    ground_force1_vx	    ground_force1_vy	    ground_force1_vz	    ground_force1_px	    ground_force1_py	    ground_force1_pz	    ground_force2_vx	    ground_force2_vy	    ground_force2_vz	    ground_force2_px	    ground_force2_py	    ground_force2_pz	    ground_torque1_x	    ground_torque1_y	    ground_torque1_z	    ground_torque2_x	    ground_torque2_y	    ground_torque2_z	
1.36667	        -18.07832931	        702.36946544	        -37.88577526	          0.20906329	         -0.00000000	          0.09082211	          0.00000000	          0.00000000	          0.00000000	          0.00000000	          0.00000000	          0.00000000	         -0.00000000	         -1.13049072	          0.00000000	          0.00000000	          0.00000000	          0.00000000	
1.36833	        -17.40588902	        702.44512120	        -37.87227695	          0.20791563	         -0.00000000	          0.09097706	          0.00000000	          0.00000000	          0.00000000	          0.00000000	          0.00000000	          0.00000000	         -0.00000000	         -1.13367529	          0.00000000	          0.00000000	          0.00000000	          0.00000000	
1.37	        -16.74814325	        702.58457297	        -37.87352990	          0.20676850	         -0.00000000	          0.09113428	          0.00000000	          0.00000000	          0.00000000	          0.00000000	          0.00000000	          0.00000000	         -0.00000000	         -1.13710117	          0.00000000	          0.00000000	          0.00000000	          0.00000000	
1.37167	        -16.10529426	        702.78345963	        -37.88920490	          0.20562304	         -0.00000000	          0.09129360	          0.00000000	          0.00000000	          0.00000000	          0.00000000	          0.00000000	          0.00000000	         -0.00000000	         -1.14069230	          0.00000000	          0.00000000	          0.00000000	          0.00000000	
1.37333	        -15.47748772	        703.03745017	        -37.91886708	          0.20448035	         -0.00000000	          0.09145481	          0.00000000	          0.00000000	          0.00000000	          0.00000000	          0.00000000	          0.00000000	         -0.00000000	         -1.14436313	          0.00000000	          0.00000000	          0.00000000	          0.00000000	
1.375	        -14.86481211	        703.34226587	        -37.96197927	          0.20334154	         -0.00000000	          0.09161771	          0.00000000	          0.00000000	          0.00000000	          0.00000000	          0.00000000	          0.00000000	         -0.00000000	         -1.14802201	          0.00000000	          0.00000000	          0.00000000	          0.00000000	
1.37667	        -14.26729847	        703.69370126	        -38.01790636	          0.20220764	         -0.00000000	          0.09178207	          0.00000000	          0.00000000	          0.00000000	          0.00000000	          0.00000000	          0.00000000	         -0.00000000	         -1.15157471	          0.00000000	          0.00000000	          0.00000000	          0.00000000	
1.37833	        -13.68492039	        704.08764385	        -38.08592057	          0.20107966	         -0.00000000	          0.09194764	          0.00000000	          0.00000000	          0.00000000	          0.00000000	          0.00000000	          0.00000000	         -0.00000000	         -1.15492790	          0.00000000	          0.00000000	          0.00000000	          0.00000000	
1.38	        -13.11759422	        704.52009219	        -38.16520764	          0.19995852	         -0.00000000	          0.09211417	          0.00000000	          0.00000000	          0.00000000	          0.00000000	          0.00000000	          0.00000000	         -0.00000000	         -1.15799238	          0.00000000	          0.00000000	          0.00000000	          0.00000000	
1.38167	        -12.56517944	        704.98717248	        -38.25487370	          0.19884506	         -0.00000000	          0.09228140	          0.00000000	          0.00000000	          0.00000000	          0.00000000	          0.00000000	          0.00000000	         -0.00000000	         -1.16068585	          0.00000000	          0.00000000	          0.00000000	          0.00000000	
1.38333	        -12.02747910	        705.48515336	        -38.35395286	          0.19774005	         -0.00000000	          0.09244906	          0.00000000	          0.00000000	          0.00000000	          0.00000000	          0.00000000	          0.00000000	         -0.00000000	         -1.16293516	          0.00000000	          0.00000000	          0.00000000	          0.00000000	
1.385	        -11.50424031	        706.01045896	        -38.46141529	          0.19664415	         -0.00000000	          0.09261688	          0.00000000	          0.00000000	          0.00000000	          0.00000000	          0.00000000	          0.00000000	         -0.00000000	         -1.16467785	          0.00000000	          0.00000000	          0.00000000	          0.00000000	
1.38667	        -10.99515480	        706.55968018	        -38.57617582	          0.19555792	         -0.00000000	          0.09278459	          0.00000000	          0.00000000	          0.00000000	          0.00000000	          0.00000000	          0.00000000	         -0.00000000	         -1.16586301	          0.00000000	          0.00000000	          0.00000000	          0.00000000	
1.38833	        -10.49985957	        707.12958416	        -38.69710285	          0.19448180	         -0.00000000	          0.09295191	          0.00000000	          0.00000000	          0.00000000	          0.00000000	          0.00000000	          0.00000000	         -0.00000000	         -1.16645136	          0.00000000	          0.00000000	          0.00000000	          0.00000000	
1.39	        -10.01793760	        707.71712195	        -38.82302757	          0.19341615	         -0.00000000	          0.09311856	          0.00000000	          0.00000000	          0.00000000	          0.00000000	          0.00000000	          0.00000000	         -0.00000000	         -1.16641476	          0.00000000	          0.00000000	          0.00000000	          0.00000000	
